<?xml version="1.0" encoding="UTF-8"?>
<!-- Created with Inkscape (http://www.inkscape.org/) -->
<svg width="2337" height="2337" version="1.1" viewBox="0 0 2337 2337" xmlns="http://www.w3.org/2000/svg" xmlns:cc="http://creativecommons.org/ns#" xmlns:dc="http://purl.org/dc/elements/1.1/" xmlns:rdf="http://www.w3.org/1999/02/22-rdf-syntax-ns#">
 <metadata>
  <rdf:RDF>
   <cc:Work rdf:about="">
    <dc:format>image/svg+xml</dc:format>
    <dc:type rdf:resource="http://purl.org/dc/dcmitype/StillImage"/>
    <dc:title/>
   </cc:Work>
  </rdf:RDF>
 </metadata>
 <g transform="translate(-2136 -222.4)">
  <circle cx="3302" cy="1391" r="1141" fill="#f9f8dc"/>
 </g>
 <g fill="#786445" stroke="#000">
  <path d="m696.2 2023 139.1 237.9 37.19 11.09-149-263.5-47 8.5z" stroke-width="7.559"/>
  <path d="m362 534.7 65.41 135.4 49.14-8.132-94.05-152.4z" stroke-width="7.559"/>
  <path d="m336.9 474.9-26.14 4.036-46.67 218.8 52.65-6.864z" stroke-linejoin="round" stroke-width="7.559"/>
 </g>
 <g fill="#957c55">
  <path d="m281 694.1 46-218 103-15 88 200-73 12-63-130-23 141z"/>
  <path d="m454 2065 640-105-44-36-633.8 107.1z"/>
  <path d="m810 1991 171.5 300.4-118.8-19.73-153.8-263z"/>
 </g>
 <path d="m434 2047 627.5-106-17.5-17-627.8 107.6z" fill-opacity=".1925"/>
 <path d="m860.3 2268-143.9-245.4 41.63-7.152 155.9 268.4z" fill-opacity=".1925"/>
 <path d="m466 2066 250.4-44.19 143.9 245.4 36.32 10.88 40.31 8.485 44.56 4.879-164.8-287 277.3-44.66-44-36-622.2 108.2z" fill="none" stroke="#000" stroke-linejoin="round" stroke-width="7.559"/>
 <path d="m281 694.1 46-218 67-9-8.5 29-38 3.5-41.5 194.5z" fill-opacity=".1925"/>
 <path d="m281 694.1 46-218 103-15 88 200-73 12-63-130-23 141z" fill="none" stroke="#000" stroke-linejoin="round" stroke-width="7.559"/>
 <path d="m114.6 723.5 889.4-130.4 119.3 1317-707 120.9-71.36-67.79-27.9-28.73-26.55-33.74-45.08-56.71-113.8-188.8-83.44-237.6-21.92-195.9 7.778-206.5 48.79-209.3z" fill="#f2f2f2"/>
 <path d="m124.3 707.9 837.7-123.8 42 9-888.3 134.1z" fill="#dadada"/>
 <path d="m117.6 709 844.4-124.9 42 9 119.3 1317-73.29 13.81-622.2 108.2" fill="none" stroke="#000" stroke-linejoin="round" stroke-width="7.559"/>
 <g transform="translate(-2136 -222.4)">
  <path d="m3203 1518c-28.28-29.7-2.828-43.84-12.73-67.88s-31.11-35.36-56.57-59.4c-25.46-24.04-7.071-70.71 33.94-66.47 41.01 4.243 151.3 52.33 151.3 52.33l179.6 38.18 148.5-39.6 161.2-73.54 60.81-41.01 25.46 24.04-55.15 83.44-65.05 56.57-116 94.75-157 48.08-127.3 8.485z" stroke="#000" stroke-width="1px"/>
 </g>
 <g transform="translate(-2136 -222.4)">
  <path d="m3622 2495s-50.91-21.92-111.7-86.97c-60.81-65.05-121.6-111.7-141.4-173.9s-29.16-60.52-24.66-114.5 10.18-54.23 10.18-54.23l43.32-143.8 26-100.5 12-51 24.5-61.5 28.94-61.66s29.62-52.04 50.84-71.84 175.4-87.68 175.4-87.68l124.5-93.34 83.44-138.6-39.6-15.56-84.85 39.6-169.7 142.8-223.4-5.657-161.2-89.1-127.3-4.243-53.74-73.54s-7.437-19.73-5.937-32.98 13-26.75 19.75-30.5 123.5-63 141.5-84.5 46-42.25 53-84.75c7-42.5 11.47-120.7 47.66-153.4 36.19-32.61 32.17-36.77 44.19-60.81s27.22-36.42 67.88-36.42c40.66 0 60.46 35.71 103.6 39.24s43.17-9.163 147.7-24.66 233 56 278.5 101c45.5 45 105.6 76.4 136 212.2 30.41 135.8-32.53 169.7-101.8 265.9-69.3 96.17-212.5 260.6-212.5 260.6l-72.67 114.9 20.16 57.55s-43.16 131.4-45.16 187.4-9 79 0 124 14.17 60.49 14.17 60.49l6.832 73.51 64.64 44.29s60.91 55.69 80.91 79.69c20 24 19.66 22.04 19.66 22.04z" fill="#4e9711"/>
 </g>
 <g transform="translate(-2136 -222.4)" fill="#3a5eff" stroke="#000" stroke-width="3.78">
  <path d="m3771 2283s-112.1 1.552-154.2-7.847c-11.86-2.647-75.66-23.03-92.5-35.16-16.85-12.13-42.45-54.58-42.45-76.14 0-21.56 10.11-30.99 12.8-57.27 2.695-26.28-12.8-21.56-14.82-53.23s-2.695-53.23 16.17-60.64c18.87-7.412 46.49-25.6 47.84-0.6738s7.412 92.98 24.26 123.3c16.85 30.32 22.24 38.41 39.75 34.36s35.71-6.064 55.93 6.738c20.21 12.8 35.71 8.759 35.71 8.759s14.1 28.91 19.49 35.64c5.39 6.738 40.94 63.47 40.94 63.47z"/>
  <path d="m3354 2065s19.54 0.6738 31.67-14.15c12.13-14.82 24.26-11.45 18.87-26.95-5.39-15.5-18.19-39.75-5.39-53.9s69.4-38.41 76.14-52.56 22.91-28.3 6.738-49.86c-16.17-21.56-37.73-4.043-40.43-37.73-2.695-33.69-7.412-53.23 4.717-67.38 12.13-14.15 18.19-39.75 25.6-58.62 7.412-18.87 16.84-57.27 16.84-57.27s-31.67 52.56-44.47 87.59c-12.8 35.04-29.65 80.86-44.47 136.8s-32.34 122-39.08 149.6c-6.738 27.63-6.738 44.47-6.738 44.47z"/>
  <path d="m3581 1967s-1.348-13.48-9.433-51.21c-8.086-37.73-12.8-51.88-26.95-59.29s-12.8 9.433-33.69-12.8c-20.89-22.24-37.73-40.43-39.75-64.68s0.6738-37.06 8.086-39.75 13.48 2.695 28.3-4.043c14.82-6.738 10.11-12.8 23.58-10.11s33.02 18.87 41.78 37.06c8.76 18.19 0 45.82 13.48 70.08 13.48 24.26 34.36 45.14 42.45 70.08 8.086 24.93 16.85 55.25 3.369 68.05-13.48 12.8-27.63 23.58-37.06 14.82s-14.15-18.19-14.15-18.19z"/>
  <path d="m3730 1793s-44.47-8.422-54.58-31.33c-10.11-22.91-18.19-18.87-5.727-42.11s24.59-39.42 26.28-49.19-16.51-32.01-11.45-47.5c5.054-15.5 11.79-44.13 49.52-59.97 37.73-15.83 68.73-28.3 92.98-38.41 24.26-10.11 53.57-26.62 65.7-36.39 12.13-9.77 23.58-19.88 23.58-19.88s-59.63 68.39-74.79 95.01c-15.16 26.62-78.5 143.9-88.27 169.8-9.77 25.94-23.25 59.97-23.25 59.97z"/>
 </g>
 <g transform="translate(-2136 -222.4)" fill="#fff" stroke="#000" stroke-width="7.559">
  <path d="m3314 980.3s12.5 16.5 27 21c14.5 4.5 35.85 11.55 64 6.25 22.26-4.19 41.79-15.83 51.5-36 13-27 22.08-39.73 21.75-73.5-0.278-28.74-5.75-48.25-32.75-60.75s-56.5-22.5-74.5-16-55.75 36-64.75 61.5-14 33.25-15 50.25-2.25 13.25 6.75 28.25 16 19 16 19z"/>
  <path d="m3602 879.3s34.5-7 64.5 5 63.5 27 89.5 57.5 50 67 55 78 9 14.5 9 16.5-2 29-14.5 48.5-35.34 46.37-43.34 53.37-27.66 26.13-55.16 28.63-34.98 5.731-80.5-0.5c-61.65-8.439-92-42.5-107-66.5s-21.71-57.07-24-80.5c-4.5-46 6-73.5 17-92.5s23.54-32.47 26-34.75c3.25-3 15.5-12 24-13.5s24 4.75 29 2.25 10.5-1.5 10.5-1.5z"/>
 </g>
 <g transform="translate(-2136 -222.4)" fill="#3a5eff">
  <path d="m3577 1037s-3.536-28.99 10.61-54.8c14.14-25.81 22.98-36.42 39.24-46.67 16.89-10.65 43.84-15.56 60.1-10.61 16.26 4.95 32.88 12.02 48.08 30.41 15.2 18.38 26.87 33.94 32.88 53.74 6.01 19.8 7.071 38.89 0.3536 56.92s-15.91 33.23-32.53 45.25-40.96 21.16-65.35 16.91-54.15-18.68-65.46-31.41c-11.31-12.73-15.21-15.62-20.87-27.99-6.889-16.75-7.061-31.76-7.061-31.76z"/>
  <path d="m3392 998.2s-16.26-3.536-31.11-16.62c-9.192-13.44-13.44-23.86-12.37-47.38 1.05-23.28 17.82-48.31 27.93-57.63 18.03-16.62 32.35-20.51 48.44-22.63 19.8 0.1768 27.58 3.536 35.71 7.425 8.132 3.889 15.38 20.51 17.15 27.58s-1.944 27.22-6.187 42.07c-4.243 14.85-18.21 49.5-27.4 56.57-9.192 7.071-18.03 9.546-30.05 12.37-8.839 0.3535-22.1-1.768-22.1-1.768z"/>
 </g>
 <g transform="translate(-2136 -222.4)">
  <path d="m3616 993.6s-8.132 21.57-6.718 40.66c1.414 19.09 5.657 30.41 12.37 38.54 6.718 8.132 16.26 15.91 29.7 19.09 13.44 3.182 26.16 3.182 35.36 1.768s23.69-9.9 31.11-16.97c7.425-7.071 18.74-31.47 19.45-45.25s-2.475-29.34-8.839-39.6c-6.364-10.25-18.03-21.21-28.99-27.22-10.96-6.01-27.58-7.778-41.01-5.303-13.44 2.475-27.22 9.9-32.53 17.32s-9.9 16.97-9.9 16.97z"/>
  <path d="m3386 969.5s-12.2-18.21-8.662-34.83c3.536-16.62 11.14-35.18 25.99-45.79 15.05-10.75 30.41-10.25 41.01-6.364 10.61 3.889 15.2 10.08 19.45 13.26 4.243 3.182 10.25 14.32 8.132 22.45-0.3535 12.02-2.652 28.11-11.84 42.25s-10.08 17.5-19.62 20.33c-9.546 2.828-20.68 5.303-35.89-1.061s-18.56-10.25-18.56-10.25z" stroke="#000" stroke-width="1px"/>
 </g>
 <g transform="translate(-2136 -222.4)">
  <path d="m3635 1026s-5.125-4-2.25-7 4.625-5.75 8.125-4.625 7 4.375 7.125 6.25-3.875 5.75-6.125 6.375-6.875-1-6.875-1z" fill="#fcfcfc"/>
  <path d="m3404 945.6s-6.5-3.25-4.25-7.5 2.5-6.75 5.5-4.5 6 2.25 5.5 5.5-1.25 5.75-2.5 6-4.25 0.5-4.25 0.5z" fill="#fff"/>
 </g>
 <g transform="translate(-2136 -222.4)" stroke="#000" stroke-width="7.559">
  <path d="m3355 830.9-2.364 0.1544s7.969-9.434 13.8-12.91c3.496-2.085 15.9-7.096 23.26-7.924 13.49-0.8284 26.29-0.9198 37.91 3.301 9.266 3.368 21.03 8.842 29.16 15.56 8.132 6.718 9.038 10.13 12.84 15.66 2.65 3.852 5.896 9.815 4.507 15.41-0.9515 3.837 0.6538 4.499-6.417-4.339-7.071-8.839-19.56-15.38-38.12-21.48-18.47-5.568-23.78-4.811-38.98-5.51-13.69-0.6301-35.6 2.071-35.6 2.071z"/>
  <path d="m3571 867.9s19.8-11.5 49.23-14.36c32.24-3.136 47.18 0.8941 69.72 7.713 31.68 9.584 29.36 10.96 50.81 29.33 36.82 31.53 28.39 21.83 42.67 43.57 11.65 17.73 17.99 28.61 21.99 42.61s11.84 35.26 12.22 40.63c0.4749 6.768 5.607 24.4 0.6066 19.4s-14-27.5-42.5-64c-28.5-36.5-44.66-53.44-71-67.5-29.75-15.89-52.32-23.88-78.82-22.88s-41.38-1.283-59.57 3.267c-26.04 6.514-33.05 14.33-34.29 11.34-1.172-2.82 9.005-9.584 15.33-14.98 5.671-4.834 23.6-14.15 23.6-14.15z"/>
 </g>
 <g transform="translate(-2136 -222.4)">
  <path d="m2672 1475s298 4 400 6 322 3 322 3-19-19-45-24-89-9-251-22-429-41-429-41z" fill="#7c6d31" stroke="#000" stroke-width="1px"/>
 </g>
 <g transform="translate(-2136 -222.4)">
  <path d="m2676 1398 385.6 37.38 197.4 13.25 0.5 13.75-575.8-33.25-15.03-7.063-4.596-14.67z" fill-opacity=".1172"/>
 </g>
 <g transform="translate(-2136 -222.4)">
  <path d="m3062 1356s-21.92-36.77-27.58-60.1c-5.657-23.33 0.055-55.69 6.805-67.69 6.75-12 15-22.25 20-22.25s20 0.5 29.75 5.5 24 9 48.5 8 37.75-3 55.75-13.25 37-24.25 50-24.25 43 10.25 60 17.75 17.5 7.5 30 22.5 23 33 33 40.5 36 24.5 100 44 115.5 38.5 152 32.5 73-11 95.5-28.5 65.5-74 120.5-99 63-27 74-30 43 14 49 28 20 25 0 58-42 49-65 89-35 52-69 82-142 89-185 109-104 42-141 50-103 9-146 4-120-33-143-49-37-38-37-47-7-12 29-7 44 22 95 32 78 20 141 12 150.9-31.46 190-53c66.75-36.75 50-37 91-68s110-78 127-103 17.25-32.75 11-25.75-20 31.75-39 47.25-47.75 42.5-75.25 61.75-77.25 59.75-98 65-99.25 19.75-144.2 25.5-103.8 14.5-144.8-16.25-67.5-59-96-75.75-34.75-18.75-45.25-14.5-21.75 15.25-29 21.75-17.75 12.5-34.5 12-39.25-10.5-58-26.5-31.23-37.21-31.23-37.21z" fill="#0d6a0b" stroke="#000" stroke-width="5.669"/>
 </g>
 <g transform="translate(-2136 -222.4)" stroke="#000" stroke-width="1px">
  <path d="m3167 1267c-10.96-3.182-10.43 1.061-14.5-5.303-4.066-6.364-2.475-8.308 4.773-12.37 7.248-4.066 7.425-6.187 15.03-5.303 7.601 0.8838 12.2 2.475 12.9 6.364s2.828 7.425-2.298 11.84c-5.127 4.419-13.08 6.364-14.14 5.834-1.061-0.5303-1.768-1.061-1.768-1.061z" fill="#1b0903"/>
  <path d="m3339 1307c6.541-1.944 11.14-5.48 16.97-2.828 5.834 2.652 7.071 2.828 8.485 6.01 1.414 3.182 3.712 5.48-0.5304 8.485-4.243 3.005-1.414 5.126-9.369 6.364-7.955 1.238-9.723 1.591-13.26-1.414s-7.778-3.889-6.718-9.016 4.419-7.601 4.419-7.601z"/>
 </g>
 <g transform="translate(-2136 -222.4)">
  <g fill-opacity=".09623">
   <path d="m3080 1208s24.25 8 35.25 8.5 63.75-1.5 72.75-7 30-21.75 38.5-23.25 41-10.5 45-10.5 42.25-9.5 60.25-26 58-49 64.5-60 21.94-30.92 29.5-46c8.45-16.85 46.23-48.09 16.73-48.09s-42.07 17.36-67.57 15.86-42.72-12.77-54.22-22.27c-11.5-9.5-26.69-33.19-30.19-43.19s-11.74 35.69-12.24 41.19 1 23.5-4 39.5-15 37-20.5 45-35 38.5-47 48-96.5 51-121.5 60.5c-23.65 8.988-20 20.75-22.5 23.75s17.25 4 17.25 4z"/>
   <path d="m3526 1595s-47.5 62-65 108-56.5 148-72 218.5-30.64 94.54-35.32 143.3-14.18 62.73 1.819 115.2 10 45.5 26.5 75.5 34.5 49.5 76.5 90 97.5 97.5 128 121 34.8 27.94 34.8 27.94l83.2-31.94s9.5 10.5-66.5-48.5-86-30.5-147.5-131-72-128-63-199 36.5-181 65-260 92.5-205.5 127-240.5 93.5-39.5 142.5-78 101-54 114-83.5 4.5-40.5 4.5-40.5l-32 38-58.5 45.5-74.5 43-71 36.5-65.5 28.5-49.5 16z"/>
   <path d="m3376 792.8s-5.657-12.73 16.97-16.97c22.63-4.243 24.75-14.85 48.08-6.364 23.33 8.485 34.65 19.09 53.74 25.46s17.68 15.56 45.25 13.44c27.58-2.121 59.4-10.61 89.8-15.56s59.4-19.8 94.05-13.44c34.65 6.364 94.05 16.26 117.4 29.7 23.33 13.44 37.48 13.44 67.18 37.48 29.7 24.04 62.23 46.67 76.37 63.64 14.14 16.97 43.13 35.36 26.87 57.28-16.26 21.92-45.96 28.99-67.18 28.28-21.21-0.7071-91.22-10.61-112.4-33.94s-16.26-34.65-45.25-60.81-46.67-45.96-69.3-53.03c-22.63-7.071-55.15-21.92-80.61-21.92-25.46 0-39.6 0.7071-70 5.657s-34.65 9.9-64.35-0.7071c-29.7-10.61-46.67-23.33-60.81-28.99-14.14-5.657-24.04-17.68-43.13-12.73-19.09 4.95-22.63 3.536-22.63 3.536z"/>
  </g>
  <path d="m3056 1202s0-0.5-9.5 19.5-22 53.5-17.5 63 21 43.5 26 54 24 47 32 52 31 21 42.5 21.5 23.57 3.499 32.54 3.75 28.96-10.75 35.96-17.75 14-3 15.5-32.5-2-62.5-4.5-75 0.5-46.5 2.5-54 10-32 13-37 17-17 20-19.5-16.17 4.879-23.6 9.122c-7.425 4.243-19.8 12.73-25.81 15.73s-22.8 9.723-29.52 10.96c-6.718 1.237-24.4 4.773-34.47 3.889-10.08-0.8838-26.16-3.005-32.53-5.834-6.364-2.828-11.24-4.933-19.32-6.621s-15.15-1.334-16.74-1.688c-1.591-0.3535-6.51-3.562-6.51-3.562z" fill-opacity=".1381"/>
  <path d="m3171 1504s14.5 24.5 18.5 30 18 22 33.5 29.5 61.5 23 66 25 73.5 16.5 79 16 42.5 2 52.5 1 45-2.5 48.5-3 18.5-8 13-24-15-33-24-36.5-33.5-10-58-11-77.5-0.5-91.5-3-74-17.5-80.5-22.5-27.65-11.52-36.83-10.76-20.17 9.262-20.17 9.262z" fill-opacity=".1339"/>
 </g>
 <g transform="translate(-2136 -222.4)" fill="none" stroke="#000" stroke-width="11.34">
  <path d="m3871 2384s-66.28-44.43-110.8-120.8c-44.55-76.37-67.18-78.49-77.78-161.9s20.33-210.3 33.94-259.5c13.61-49.23 57.98-190.2 123.7-279.3 65.76-89.1 158.4-200.8 205.8-269.4 47.38-68.59 64.35-106.8 53.03-183.8s-63.64-171.1-129.4-224.2c-65.76-53.03-176.1-105.4-227-104.7-50.91 0.7071-82.02 4.243-159.1 21.92-77.07 17.68-91.22-16.97-118.1-28.28-26.87-11.31-60.81-9.192-77.78-1.414-16.97 7.778-32.4 57.9-32.4 57.9s4.118-5.571-22.75 17.76c-26.87 23.33-47.38 70.71-52.33 105.4-4.95 34.65-5.657 67.18-17.68 94.75-12.02 27.58-45.25 70-112.4 101.8-67.18 31.82-77.07 21.21-94.75 52.33s-40.31 67.88-16.97 110.3c23.33 42.43 32.53 67.88 53.74 81.32 21.21 13.44 27.58 17.68 27.58 17.68"/>
  <path d="m3622 2495s-147.8-111.4-182.8-158.9-86.5-97-91.5-160.5 10.5-160 35.5-240.5 54-186.5 72-227 69.7-114.8 69.7-114.8-54.57 12.21-111.5 12.21-93.69-9.192-140.7-24.04c-47.02-14.85-70.71-30.05-84.85-47.73-14.14-17.68-19.45-33.23-17.68-36.06s21.21-2.828 21.21-2.828l0.3536-6.718"/>
 </g>
 <g transform="translate(-2136 -222.4)" fill="#962003" stroke="#000" stroke-width="3.78">
  <path d="m3388 1494s-13.44 21.21-27.58 26.87c-14.14 5.657-32.61 4.081-46.75 3.021-14.14-1.061-49.36-11.92-62.79-21.82-13.44-9.9-30.82-11.96-43.19-27.51-12.37-15.56-37.48-24.75-54.45-30.05-16.97-5.303-39.24-8.485-51.62-7.071-12.37 1.414-20.86-1.414-20.86-1.414s15.56-14.5 22.98-17.68 26.87-4.243 36.77-4.243 37.12 3.182 50.91 5.303c13.79 2.121 54.8 9.192 58.69 11.31 3.889 2.121 31.82 10.61 40.66 10.61 8.839 0 18.38 0.3535 18.38 0.3535s10.61 6.01 20.15 13.79c9.546 7.778 33.59 22.63 39.24 25.46 5.657 2.828 19.45 13.08 19.45 13.08z"/>
  <path d="m2912 1419s16.35-20.66 24.35-21.16 27-4 36.5-4 33.5 3 40 7.5 23.5 21.5 23.5 21.5 8 16 16 25 18 21.5 24 24.5 9.002 11.17 15 11l12.83-0.3536s-4.328 2.354-16.33 12.85-17.5 14.5-37 15.5-14.5 8-35.5-8.5-20-14.5-33-36-18-32-25-39.5-17.28-3.197-28.28-5.697-17.08-2.646-17.08-2.646z"/>
  <path d="m2904 1480 36.55 0.9142s-2.025 13.31-2.775 22.81-3.5 11.25 1.75 20.75 12.25 24.75 16.25 30 21.75 32 31 39.5 20 16.75 16.25 17.5-20.25 1.25-36-6.5-30.75-13.25-37.75-24-13-16.25-14.25-22.75-3.25-3.25-2.75 0.5 4 12 4.5 20-0.25 11.5 0.75 21.5 6.75 24.5 0.75 20-10.5-0.75-16-14.75-7.5-20.75-8.75-29.5-6-17.75-3.75-28.25 6-31.5 7.75-43.75 6.475-23.97 6.475-23.97z"/>
 </g>
 <g transform="translate(-2136 -222.4)">
  <path d="m3081 1436 22.89-17.4 25.5-5 38.25 2.25 63.25 10.75 17.5 3 24.25 8 28.5 4.5 8.26-0.441 16.26 10.61 24.04 16.97 12.9 8.485 15.56 8.132 11.84 8.485-13.61 25.63s-15.03 15.91-29.34 13.26c-14.32-2.652-13.61-11.31-40.84-32.53s-98.64-48.08-116-49.5c-17.32-1.414-19.55-0.9174-19.55-0.9174l-28.81-8.812-23-4.125-19.5 0.375-13.62-0.625z" fill-opacity=".205"/>
 </g>
 <g transform="translate(-2136 -222.4)">
  <path d="m3163 1416c14.14 7.778 20.86 13.44 44.9 28.99 24.04 15.56 110.4 37.13 113.5 36.78 0 0-23.45-8.697-53.44-17.49-21.48-5.289-45.49-13.24-61.68-25.46-9.088-6.857-15.75-14.34-24.59-17.87-8.839-3.536-18.74-4.95-18.74-4.95z" stroke="#000" stroke-width="1px"/>
 </g>
 <g transform="translate(-2136 -222.4)" fill-opacity=".1172">
  <path d="m3044 1439-8.5-16-24.62-21.88-22.12-6.125-27.38-0.75-21.25 3.125-8.625 1.875-9.25 6.875-11.1 13.03 9.854 1.593 18.75 2.75 12 0.875 9.25 8.625 8.75 14.5s4.625 9.5 6.25 9.5 24.5-0.5 32-3.875 25.5-11.25 30.38-9.5 11.12 2.125 11.12 2.125z"/>
  <path d="m2896 1518 2.5-21 5.475-16.97 36.55 0.9142-1.775 20.06-1.75 8.5-0.75 7.75s-23.25 3-27.75 2.75-12.5-2-12.5-2z"/>
 </g>
 <g transform="translate(-2136 -222.4)">
  <path d="m2544 1478s-4.633 7.753-7.108-14.87c-2.475-22.63-6.229-51.95-1.061-63.29l5.169-11.34 15.34 9.572 20.51 50.2-13.44 15.56z" fill="#3e3e3e" stroke="#010101" stroke-width="1px"/>
 </g>
 <g transform="translate(-2136 -222.4)">
  <path d="m2540 1389 132.5 2s10.5 19 10.5 46.5-9 43-9 43l-131-2s10-12 10-42.5-13-47-13-47z" fill="#4e441f" stroke="#010101" stroke-width="1px"/>
 </g>
 <g transform="translate(-2136 -222.4)">
  <path d="m2553 1422 129.9 5.303s-1.945-13.97-3.182-19.09c-1.238-5.126-6.404-17.47-6.404-17.47l-132.5-2s7.913 14.17 9.327 20.36c1.414 6.187 2.828 12.9 2.828 12.9z" fill-opacity=".1172"/>
 </g>
 <g transform="translate(-2136 -222.4)" stroke="#000">
  <path d="m2544 1461s-27.5 4.5-52.5 4-43-10.5-67-9.5-44 1-48.5-7-30.5-28-30-41 2.5-40 7-57 16-39 24-47.5c8-8.5 34-22.5 42.5-30.5s28-42.5 28-42.5 12.5 20 14 30 11.5 21 21 13.5 24-33 27.5-33 10 2.5 4 19.5-27 32-32.5 54c-5.5 22-7 65.5 6 77.5s53 24.5 53 24.5 3 1 5.5 7 0 21.5 0 25-2 13-2 13z" fill="#fbf2c7" stroke-width="1.89"/>
  <g fill="none">
   <path d="m2532 1453s-21 3.5-30.5 2.25-23-3.75-31.5-7.25-27-4.25-35.75-4.75-12.5 5.5-25-1.25-39-21.25-40.25-27.5-6-44.5-4.5-53.25" stroke-width="1.89"/>
   <path d="m2514 1444c-29.75-7-35-4.25-44.5-10.25s-21.25-9-26-9-1 7-18.5 0-30.25-8.5-35.5-29-6.25-34.75-5-42-4.25-17 9.75-35.25 26.75-28 26.75-28" stroke-width="1.512"/>
   <path d="m2526 1431c-19-2-19.5 1.25-33.25 0.75s-23-9.75-30.5-14.75-11.75-2.5-21.75-4.75-23.25-22.75-25.5-32.5-10.75-28.75 5.25-50 29.5-43 29.5-50.25-1.5-29.25-1.5-29.25" stroke-width="2.268"/>
   <path d="m2522 1425c-12.25-3.75-19.5-8.75-26.5-13s-19.5-7.25-23.75-7.25-17.5-9-19.5-18.5-2.25-20 0.75-30 11-26.25 10.75-38.75-2.25-24 2.25-27.5 22.75-9.25 26.5-14.75 11.75-18 11.75-18" stroke-width="1.512"/>
  </g>
 </g>
 <g transform="translate(-2136 -222.4)" fill-opacity=".1339">
  <path d="m2478 1358s1.237 10.25 1.414 13.79c0.1768 3.536 4.419 14.94 5.922 16.97 1.503 2.033 8.397 8.308 11.4 9.634 3.005 1.326 31.2 14.14 33.32 14.58 2.121 0.442 11.67 3.889 11.67 3.889l3.889 4.508 1.414 4.066 0.6187 5.568-0.2652 4.95s-4.066 1.856-9.811 0.6187c-5.745-1.237-17.5-4.066-20.77-7.513-3.27-3.447-12.11-8.043-18.03-9.634-5.922-1.591-10.43 0.3535-16-2.917-5.568-3.27-25.81-16.09-28.46-20.77-2.652-4.685-8.132-30.41-8.132-30.41z"/>
  <path d="m2407 1386s8.839 8.132 11.84 15.91c3.005 7.778 8.485 16.26 15.56 17.15 7.071 0.8838 25.63 1.061 29.34 3.712 3.712 2.652 11.31 9.546 17.85 12.02 6.541 2.475 36.77 5.834 36.77 5.834s2.033 0.6187 0.8839 1.149c-1.149 0.5303-5.966 0.928-5.966 0.928l-14.19-2.917-20.29-2.961-6.193-2.249-8.812-5.125-11.12-4.312-8.688-1.125-2.562 1.125-2.062 1.812-5.688-0.375s-10.75-2.75-15-5-21.62-12.38-21.62-12.38l-5.25-8.875-2.875-14.12-3.875-20.88 3.625-6.125 4.625-4z"/>
  <path d="m2517 1454s12.62-1.25 13-1.25 5.25 0.375 5-1.625-3.5-4.25-5.5-3.875-7.625 1.875-15 2.625-20 1.625-24.25-0.75-13-6.75-23.25-9.625-30.62-2.5-35.25-3.5-13.88-2-23.25-7.125-16.5-12.5-21.88-16.38-8.625-5.375-9.625-12.62 0.875-11.38 0.125-16.62-4.25-9.5-4.25-9.5l-9.25 4.25 2 9.25 3.875 26.25 1.5 3 12.12 9.5 24.75 14.38 10.38 4.25 8-0.75 6.125-1.375 18.62 1.125 16.38 3.125 14.5 4.375 19.62 3.5z"/>
 </g>
 <g transform="translate(-2136 -222.4)" fill="#3a5eff">
  <path d="m2379 1293c5.303-7.248 1.238-13.08 10.61-18.92 9.369-5.834 25.46-9.723 29.7-19.62 4.243-9.899-4.066-21.92 12.55-34.65s27.22-17.68 29.34-9.546c2.121 8.132-1.414 22.27 4.243 32.17 5.657 9.9 12.73 19.09 22.98 6.01 10.25-13.08 5.303-23.33 24.4-31.82 19.09-8.485 20.51-29.7 32.88-9.546 12.37 20.15 20.86 13.79 8.485 36.77-12.37 22.98-19.45 14.85-36.42 37.83-16.97 22.98-13.79 14.5-18.38 41.37s9.192 35-15.56 38.89c-24.75 3.889-25.81-1.061-33.94 14.5-8.132 15.56 4.596 27.22-19.8 20.51s-19.8 14.85-30.05-10.96c-10.25-25.81-0.3536-32.88-15.56-19.09s3.182 19.45-20.51 23.33-27.22-11.67-19.09-34.65c8.132-22.98 1.768-31.82 15.91-43.13 14.14-11.31 18.21-19.45 18.21-19.45z"/>
  <path d="m2473 1176c10.96-0.7071 20.51-8.132 20.86-12.73 0.3535-4.596-1.061-13.44-8.132-9.9-7.071 3.536-18.38 18.03-16.97 20.15s4.243 2.475 4.243 2.475z"/>
  <path d="m2561 1196c8.839-14.14 6.364-32.17 13.44-37.12 7.071-4.95 14.85-12.37 21.21-7.071 6.364 5.303 12.02 8.485 3.889 18.38-8.132 9.9-19.45 12.73-23.69 22.63-4.243 9.9-4.596 16.97-10.96 16.62-6.364-0.3536-3.889-13.44-3.889-13.44z"/>
  <path d="m2523 1178c-1.768-7.778 4.95-12.37 7.071-11.31 2.121 1.061 6.01 4.95 3.889 7.778s-10.96 3.536-10.96 3.536z"/>
  <path d="m2716 1067c34-8.5 27.12-7.625 24.62-17.62s-6.625-4.25-17.12 3.75-19.25 0-16.75 8 9.25 5.875 9.25 5.875z"/>
  <path d="m2413 1434c-10.5-2.75-12.5-6.5-16.5-10.75s-13.25-1.75-14.25-6.5-2.5-10 2.5-10.75 14.75-0.75 20.5 4.5 12 6 16.25 9 12 8 5 12-13.5 2.5-13.5 2.5z"/>
  <path d="m2478 1416c-6-3.25-9.75-0.5-10-7.75s-1-13.25 2.5-13.25 10.5 2 11.25 4.75 1 8.25 0.5 11-4.25 5.25-4.25 5.25z"/>
  <path d="m2574 1104c-3-9 0.5-16 7-13.5s11 4.5 8 8.5-15 5-15 5z"/>
  <path d="m2507 1150c12.73-7.071 20.86-7.778 21.21-27.22 0.3536-19.45-7.425-23.69 9.9-35 17.32-11.31 33.23-24.04 30.05-30.41-3.182-6.364-9.192-24.4-34.29-2.121-25.1 22.27-36.06 39.24-32.53 48.08s12.02 13.79 4.596 24.4-8.485 19.8-3.182 21.21 4.243 1.061 4.243 1.061z"/>
  <path d="m2358 1381c4 6.25 6 7.5 1 12.5s-8.25 10.5-8.25 17.5 2.75 13 8 20 3.75 8 7 14.75 8.25 13.25 16.5 13.25 13-4.75 23.25 0 21.5 7.5 29.5 5.25 12.75-7 20.25-3.25 17.75 12.75 19.5 0.75 2.25-23.25-6.5-27-16.75-10-17.75-14.75 3-10.25 2-19-0.75-16-12-17.25-17.5-2.5-27.25-0.75-15.75-5.75-22-9.75-10.25-8.75-19-4.5-14.25 12.25-14.25 12.25z"/>
 </g>
 <g transform="translate(-2136 -222.4)">
  <g fill-opacity=".1297">
   <path d="m2360 1333c3.25-9-4.25-6.25 5.25-13s11.5-3.75 16.75-15.25 0.5-13.25 7.5-19.25 17.5-6.5 26.75-14.25 15.5-26.5 16.75-33.75 15-22 17.5-22.25 2.5 6.5 4.5 16.5 4.75 21.5 11 25.5 13.75 8.75 13.25 14.25-5.5 15.75-16.5 16.25-37.75 2-43.75 9.75-15.5 22.75-21.75 28.25-18.25 11.75-24.75 10.25-12.5-3-12.5-3z"/>
   <path d="m2489 1256c6.5-5.375 9.125-12.12 10-16.38s-3.625-5.25 8.875-13.25 17.62-11.38 21.88-16.38 2.875-8.375 7.125-5.875 5.375 3.625 7.875 9.375 14.12 9.5-0.625 16.38-25.25 9.75-27.62 16.38-3.5 12.62-11.38 14.62-14.75 5.5-20 2.75 3.875-7.625 3.875-7.625z"/>
   <path d="m2571 1180c0.3536-5.834-1.856-7.601 2.917-14.05 4.773-6.452 7.425-9.192 11.05-10.96 3.624-1.768 6.718-3.182 8.662-1.856 1.944 1.326 4.419 2.828 3.182 5.215-1.237 2.386-3.005 2.21-9.723 8.043s-6.364 6.894-9.192 10.96c-2.828 4.066-6.541 9.723-7.601 7.425-1.061-2.298 0.7071-4.773 0.7071-4.773z"/>
  </g>
  <path d="m2421 1457c-20.86-8.132-16.62-7.071-26.52-5.657s-10.25 3.182-13.08-4.596c-2.828-7.778-2.121-16.97-8.839-22.27s-14.14-3.182-11.31-13.44c2.828-10.25 14.85-14.5 10.25-22.98-4.596-8.485-5.766-6.506-13.14-7.672s-12.32-6.116-9.138-15.31 5.303 4.95 6.718-5.303c1.414-10.25 2.789-11.19 7.385-13.67 4.596-2.475 9.728-2.657 16.8-0.182 7.071 2.475 15.19-15.06 13.42-5.511-1.768 9.546-9.049 8.848-18.87 14.41-9.818 5.562-7.778 12.02 1.061 16.26 8.839 4.243 15.2 3.889 16.97 11.31 1.768 7.425 1.794 8.849-1.224 17.86s-9.029 16.08-1.25 18.2 13.72-9.201 20.86 8.485c7.141 17.69-5.303 21.21 9.9 23.33 15.2 2.121 21.57-4.243 27.58-1.061s-3.536 12.37-10.96 10.96c-7.425-1.414-16.62-3.182-16.62-3.182z" fill-opacity=".1423"/>
 </g>
 <g transform="translate(-2136 -222.4)">
  <circle cx="3305" cy="1391" r="1144" fill="none" stroke="#000" stroke-width="18.9"/>
 </g>
</svg>
